<?xml version="1.0" standalone="no"?>
<!DOCTYPE svg PUBLIC "-//W3C//DTD SVG 20010904//EN"
 "http://www.w3.org/TR/2001/REC-SVG-20010904/DTD/svg10.dtd">
<svg version="1.0" xmlns="http://www.w3.org/2000/svg"
 width="512.000000pt" height="512.000000pt" viewBox="0 0 512.000000 512.000000"
 preserveAspectRatio="xMidYMid meet">
<metadata>
Created by potrace 1.14, written by Peter Selinger 2001-2017
</metadata>
<g transform="translate(0.000000,512.000000) scale(0.100000,-0.100000)"
fill="#000000" stroke="none">
<path d="M1418 5115 c-2 -2 -25 -7 -49 -9 -25 -3 -57 -7 -70 -10 -13 -3 -35
-8 -49 -10 -14 -3 -50 -12 -80 -21 -30 -8 -65 -18 -78 -20 -57 -13 -231 -91
-317 -143 -200 -119 -386 -298 -518 -495 -47 -71 -145 -262 -152 -296 -2 -11
-8 -28 -14 -39 -13 -24 -57 -193 -65 -248 -4 -22 -9 -51 -13 -64 -4 -14 -8
-540 -9 -1170 -2 -1065 -1 -1153 16 -1255 10 -60 20 -117 23 -125 2 -8 7 -28
11 -45 4 -16 14 -50 23 -75 17 -51 22 -68 23 -75 3 -16 78 -170 112 -229 103
-177 273 -370 412 -466 12 -8 26 -19 33 -25 29 -24 69 -51 93 -62 8 -4 17 -9
20 -13 3 -3 52 -29 110 -57 149 -74 279 -114 480 -150 59 -10 2330 -10 2395 0
378 61 695 223 929 476 86 93 110 122 157 193 23 35 49 74 59 88 48 71 150
314 164 396 3 13 7 27 10 32 6 11 14 52 31 167 11 72 13 317 11 1240 -2 1036
-4 1157 -19 1220 -9 39 -19 81 -21 95 -17 97 -154 418 -196 460 -3 3 -11 17
-19 33 -8 15 -18 27 -23 27 -4 0 -8 5 -8 11 0 33 -210 254 -320 337 -41 31
-76 60 -78 65 -2 4 -7 7 -12 7 -4 0 -37 17 -72 39 -152 92 -354 168 -528 197
-19 3 -48 8 -65 12 -34 7 -2329 14 -2337 7z"/>
</g>
</svg>
